<mxfile host="app.diagrams.net" agent="Mozilla/5.0 (Windows NT 10.0; Win64; x64) AppleWebKit/537.36 (KHTML, like Gecko) Chrome/136.0.0.0 Safari/537.36" version="27.0.9">
  <diagram name="Arquitectura_Fase1FS" id="IxOGfHAKd5Z18NIdPeLQ">
    <mxGraphModel dx="1585" dy="798" grid="1" gridSize="10" guides="1" tooltips="1" connect="1" arrows="1" fold="1" page="1" pageScale="1" pageWidth="850" pageHeight="1100" math="0" shadow="0">
      <root>
        <mxCell id="0" />
        <mxCell id="1" parent="0" />
        <mxCell id="7AFh2Uimd_96vAY5fnIn-1" value="&#xa;  &#xa;    &#xa;      &#xa;        &#xa;        &#xa;        &#xa;        &#xa;        &#xa;          &#xa;        &#xa;        &#xa;        &#xa;        &#xa;          &#xa;        &#xa;        &#xa;        &#xa;        &#xa;          &#xa;        &#xa;        &#xa;        &#xa;        &#xa;        &#xa;      &#xa;    &#xa;  &#xa;" style="text;whiteSpace=wrap;html=1;" vertex="1" parent="1">
          <mxGeometry x="700" y="140" width="30" height="430" as="geometry" />
        </mxCell>
        <UserObject label="┌───────────────────┐       HTTP (JSON)       ┌───────────────────┐       Queries        ┌───────────────────┐&#xa;│                   │ ----------------------&amp;gt; │                   │ -------------------&amp;gt; │                   │&#xa;│    FRONTEND       │    Axios/Fetch API      │     BACKEND       │    Mongoose/ORM     │    MONGODB        │&#xa;│   (React.js)      │ &amp;lt;---------------------- │  (Node.js +       │ &amp;lt;------------------ │                   │&#xa;│                   │    Respuestas API       │    Express)       │    Datos            │                   │&#xa;└───────────────────┘                        └───────────────────┘                     └───────────────────┘&#xa;       ↑                                                                                     &#xa;       │                                                                                     &#xa;       │  Socket.io (opcional)                                                               &#xa;       └───────────────────────┐                                                             &#xa;                               │                                                             &#xa;                         ┌─────┴─────┐                                                      &#xa;                         │           │                                                      &#xa;                         │  GITHUB   │                                                      &#xa;                         │  (Git)    │                                                      &#xa;                         └───────────┘" link="┌───────────────────┐       HTTP (JSON)       ┌───────────────────┐       Queries        ┌───────────────────┐&#xa;│                   │ ----------------------&amp;gt; │                   │ -------------------&amp;gt; │                   │&#xa;│    FRONTEND       │    Axios/Fetch API      │     BACKEND       │    Mongoose/ORM     │    MONGODB        │&#xa;│   (React.js)      │ &amp;lt;---------------------- │  (Node.js +       │ &amp;lt;------------------ │                   │&#xa;│                   │    Respuestas API       │    Express)       │    Datos            │                   │&#xa;└───────────────────┘                        └───────────────────┘                     └───────────────────┘&#xa;       ↑                                                                                     &#xa;       │                                                                                     &#xa;       │  Socket.io (opcional)                                                               &#xa;       └───────────────────────┐                                                             &#xa;                               │                                                             &#xa;                         ┌─────┴─────┐                                                      &#xa;                         │           │                                                      &#xa;                         │  GITHUB   │                                                      &#xa;                         │  (Git)    │                                                      &#xa;                         └───────────┘" id="7AFh2Uimd_96vAY5fnIn-2">
          <mxCell style="text;whiteSpace=wrap;html=1;" vertex="1" parent="1">
            <mxGeometry x="70" y="100" width="760" height="310" as="geometry" />
          </mxCell>
        </UserObject>
      </root>
    </mxGraphModel>
  </diagram>
</mxfile>
